<svg id="Layer_1" data-name="Layer 1" xmlns="http://www.w3.org/2000/svg" viewBox="0 0 304.18 512"><defs><style>.cls-1{fill:#fafafa;}</style></defs><title>tumblr-brands</title><path class="cls-1" d="M309.8,480.3c-13.6,14.5-50,31.7-97.4,31.7-120.8,0-147-88.8-147-140.6v-144H17.9a10,10,0,0,1-10-10v-68a16.93,16.93,0,0,1,11.3-16c62-21.8,81.5-76,84.3-117.1C104.3,5.3,110,0,119.6,0h70.9a10,10,0,0,1,10,10V125.2h83a9.94,9.94,0,0,1,10,9.9v81.7a10,10,0,0,1-10,10H200.1V360c0,34.2,23.7,53.6,68,35.8,4.8-1.9,9-3.2,12.7-2.2,3.5.9,5.8,3.4,7.4,7.9l22,64.3c1.8,5,3.3,10.6-.4,14.5Z" transform="translate(-7.9 0)"/></svg>